{
  "accessors": [
    {
      "bufferView": 2,
      "componentType": 5126,
      "count": 11707,
      "max": [
        3.2675600051879883,
        0.43942999839782715,
        6.0312299728393555
      ],
      "min": [
        -0.69757997989654541,
        -10.018750190734863,
        -26.018320083618164
      ],
      "type": "VEC3"
    },
    {
      "bufferView": 2,
      "byteOffset": 140484,
      "componentType": 5126,
      "count": 11707,
      "max": [
        0.99999624490737915,
        0.99985355138778687,
        0.99965262413024902
      ],
      "min": [
        -1,
        -0.99999994039535522,
        -0.9989132285118103
      ],
      "type": "VEC3"
    },
    {
      "bufferView": 3,
      "componentType": 5126,
      "count": 11707,
      "max": [
        0.99999004602432251,
        0.99999022483825684,
        0.99998676776885986,
        1
      ],
      "min": [
        -0.99223566055297852,
        -0.99997377395629883,
        -0.99993723630905151,
        -1
      ],
      "type": "VEC4"
    },
    {
      "bufferView": 2,
      "byteOffset": 280968,
      "componentType": 5126,
      "count": 11707,
      "max": [
        1,
        1,
        1
      ],
      "min": [
        1,
        1,
        1
      ],
      "type": "VEC3"
    },
    {
      "bufferView": 1,
      "componentType": 5126,
      "count": 11707,
      "max": [
        0.99024999141693115,
        0.83276998996734619
      ],
      "min": [
        0.012740000151097775,
        0.0099400002509355545
      ],
      "type": "VEC2"
    },
    {
      "bufferView": 0,
      "componentType": 5125,
      "count": 63168,
      "max": [
        11706
      ],
      "min": [
        0
      ],
      "type": "SCALAR"
    }
  ],
  "asset": {
    "extras": {
      "author": "tantangula (https://sketchfab.com/stephenbgarrett)",
      "license": "CC-BY-4.0 (http://creativecommons.org/licenses/by/4.0/)",
      "source": "https://sketchfab.com/models/23b5882e9be4420dbcaae147b68f9501",
      "title": "Quillson - Animal Crossing"
    },
    "generator": "Sketchfab-3.18.6",
    "version": "2.0"
  },
  "bufferViews": [
    {
      "buffer": 0,
      "byteLength": 252672,
      "byteOffset": 0,
      "name": "floatBufferViews",
      "target": 34963
    },
    {
      "buffer": 0,
      "byteLength": 93656,
      "byteOffset": 252672,
      "byteStride": 8,
      "name": "floatBufferViews",
      "target": 34962
    },
    {
      "buffer": 0,
      "byteLength": 421452,
      "byteOffset": 346328,
      "byteStride": 12,
      "name": "floatBufferViews",
      "target": 34962
    },
    {
      "buffer": 0,
      "byteLength": 187312,
      "byteOffset": 767780,
      "byteStride": 16,
      "name": "floatBufferViews",
      "target": 34962
    }
  ],
  "buffers": [
    {
      "byteLength": 955092,
      "uri": "scene.bin"
    }
  ],
  "images": [
    {
      "uri": "textures/Material.003_baseColor.png"
    }
  ],
  "materials": [
    {
      "doubleSided": true,
      "name": "Material.003",
      "pbrMetallicRoughness": {
        "baseColorFactor": [
          1,
          1,
          1,
          1
        ],
        "baseColorTexture": {
          "index": 0,
          "texCoord": 0
        },
        "metallicFactor": 0,
        "roughnessFactor": 0.59999999999999998
      }
    }
  ],
  "meshes": [
    {
      "name": "Quillson_0",
      "primitives": [
        {
          "attributes": {
            "COLOR_0": 3,
            "NORMAL": 1,
            "POSITION": 0,
            "TANGENT": 2,
            "TEXCOORD_0": 4
          },
          "indices": 5,
          "material": 0,
          "mode": 4
        }
      ]
    }
  ],
  "nodes": [
    {
      "children": [
        1
      ],
      "name": "RootNode (gltf orientation matrix)",
      "rotation": [
        -0.70710678118654746,
        -0,
        -0,
        0.70710678118654757
      ]
    },
    {
      "children": [
        2
      ],
      "name": "RootNode (model correction matrix)"
    },
    {
      "children": [
        3
      ],
      "name": "Root"
    },
    {
      "children": [
        4
      ],
      "matrix": [
        0.42624000000000001,
        0.070480000000000001,
        -0.35087000000000007,
        0,
        0.020860000000000004,
        0.18882000000000002,
        0.063260000000000025,
        0,
        0.044840000000000012,
        -0.021740000000000002,
        0.050100000000000013,
        0,
        0,
        0.49637000000000009,
        0.36879000000000001,
        1
      ],
      "name": "Quillson"
    },
    {
      "mesh": 0,
      "name": "Quillson_0"
    }
  ],
  "samplers": [
    {
      "magFilter": 9729,
      "minFilter": 9987,
      "wrapS": 10497,
      "wrapT": 10497
    }
  ],
  "scene": 0,
  "scenes": [
    {
      "name": "OSG_Scene",
      "nodes": [
        0
      ]
    }
  ],
  "textures": [
    {
      "sampler": 0,
      "source": 0
    }
  ]
}

